<svg xmlns="http://www.w3.org/2000/svg" width="24" height="24" viewBox="0 0 24 24" fill="none">
  <path fill-rule="evenodd" clip-rule="evenodd" d="M12.5 8.8V10.5C12.8516 9.95105 13.3419 9.50473 13.9214 9.20621C14.5009 8.90768 15.149 8.76755 15.8 8.8C19.3 8.8 20 11 20 13.8V19.5H16.8V14.5C16.8 13.2 16.6 11.7 14.7 11.7C12.8 11.7 12.5 13 12.5 14.3V19.5H9.30001V8.8H12.5ZM7.20001 6.1C7.20793 6.34844 7.15787 6.59531 7.05378 6.82103C6.94968 7.04676 6.79443 7.24513 6.60033 7.4004C6.40624 7.55568 6.17863 7.6636 5.93556 7.71561C5.69249 7.76761 5.44065 7.76227 5.20001 7.7C4.98033 7.63487 4.77721 7.52332 4.60438 7.37289C4.43154 7.22246 4.29304 7.03667 4.19822 6.82808C4.10341 6.61949 4.0545 6.39297 4.05481 6.16385C4.05512 5.93472 4.10463 5.70833 4.20001 5.5C4.31052 5.29412 4.46479 5.11495 4.65196 4.97507C4.83913 4.8352 5.05467 4.73802 5.28342 4.69036C5.51217 4.64271 5.74858 4.64573 5.97604 4.69922C6.2035 4.75272 6.41648 4.85538 6.60001 5C6.90001 5.3 7.10001 5.7 7.10001 6.1H7.20001Z" fill="#E8E6FF"/>
  <path d="M7.2 8.8H4V19.5H7.2V8.8Z" fill="#E8E6FF"/>
</svg>
