<svg xmlns="http://www.w3.org/2000/svg" width="123" height="40" viewBox="0 0 123 40" fill="none">
  <path d="M16.3767 6.62984L34.9002 0L53.9225 6.51196L50.8425 31.1307L34.9002 40L19.2073 31.2486L16.3767 6.62984Z" fill="#DE0030"/>
  <path d="M53.9225 6.51196L34.9002 0V40L50.8425 31.1455L53.9225 6.51196Z" fill="#DE0030"/>
  <path d="M35.2918 4.50095L34.9214 3.709L34.5644 4.50705L23.0221 30.3045L22.7652 30.8785L23.394 30.8678L27.7058 30.7941L27.9721 30.7896L28.0706 30.5422L30.2876 24.9746H40.1075L42.5407 30.626L42.6428 30.8632L42.9009 30.8678L47.0221 30.9414L47.6632 30.9529L47.3915 30.372L35.2918 4.50095ZM32.1281 20.7271L34.9823 13.915L38.2266 20.7271H32.1281Z" fill="#E8E6FF" stroke="#E8E6FF" stroke-width="0.8"/>
  <path d="M4.13304 30.5569V26.0975H9.24853C10.5359 26.0975 11.6764 25.9061 12.6701 25.5232C13.6865 25.1178 14.5447 24.5547 15.2448 23.834C15.945 23.1133 16.4757 22.2688 16.8371 21.3003C17.221 20.3093 17.413 19.217 17.413 18.0233C17.413 16.7846 17.221 15.6811 16.8371 14.7126C16.4757 13.7216 15.945 12.8771 15.2448 12.1789C14.5447 11.4807 13.6865 10.9514 12.6701 10.5911C11.6764 10.2307 10.5359 10.0505 9.24853 10.0505H4.13304V5.59119H8.94363C11.1795 5.59119 13.1331 5.91776 14.8044 6.57089C16.4757 7.22403 17.8647 8.12491 18.9713 9.27354C20.078 10.3996 20.9024 11.6947 21.4444 13.1586C22.009 14.6 22.2913 16.0977 22.2913 17.6517V18.395C22.2913 19.8814 22.009 21.3453 21.4444 22.7868C20.9024 24.2282 20.078 25.5344 18.9713 26.7056C17.8647 27.8767 16.4757 28.8114 14.8044 29.5096C13.1331 30.2078 11.1795 30.5569 8.94363 30.5569H4.13304ZM0 30.5569V5.59119H4.81059V30.5569H0Z" fill="#E8E6FF"/>
  <path d="M53.3074 30.4217L45.414 5.7601H50.394L56.9323 27.111L55.5095 26.4353H59.1682L57.7115 27.111L63.7417 5.7601H68.5523L61.2347 30.4217H53.3074Z" fill="#E8E6FF"/>
  <path d="M70.9292 30.4217V5.7601H75.7398V30.4217H70.9292Z" fill="#E8E6FF"/>
  <path d="M85.3668 30.5569V26.0975H90.4822C91.7696 26.0975 92.9101 25.9061 93.9039 25.5232C94.9202 25.1178 95.7784 24.5547 96.4785 23.834C97.1787 23.1133 97.7094 22.2688 98.0708 21.3003C98.4547 20.3093 98.6467 19.217 98.6467 18.0233C98.6467 16.7846 98.4547 15.6811 98.0708 14.7126C97.7094 13.7216 97.1787 12.8771 96.4785 12.1789C95.7784 11.4807 94.9202 10.9514 93.9039 10.5911C92.9101 10.2307 91.7696 10.0505 90.4822 10.0505H85.3668V5.59119H90.1773C92.4132 5.59119 94.3668 5.91776 96.0381 6.57089C97.7094 7.22403 99.0984 8.12491 100.205 9.27354C101.312 10.3996 102.136 11.6947 102.678 13.1586C103.243 14.6 103.525 16.0977 103.525 17.6517V18.395C103.525 19.8814 103.243 21.3453 102.678 22.7868C102.136 24.2282 101.312 25.5344 100.205 26.7056C99.0984 27.8767 97.7094 28.8114 96.0381 29.5096C94.3668 30.2078 92.4132 30.5569 90.1773 30.5569H85.3668ZM81.2337 30.5569V5.59119H86.0443V30.5569H81.2337Z" fill="#E8E6FF"/>
  <path d="M107.155 30.4217V5.7601H111.864V30.4217H107.155ZM111.187 30.4217V26.3678H122.4V30.4217H111.187ZM111.187 19.9152V15.8612H121.519V19.9152H111.187ZM111.187 9.81407V5.7601H122.129V9.81407H111.187Z" fill="#E8E6FF"/>
</svg>
